<svg xmlns="http://www.w3.org/2000/svg" width="64" height="64" viewBox="0 0 64 64" fill="currentColor">
  <path d="M21.921 1.374C11.546 4.93 3.957 12.752.934 23.064c-1.245 4.267-1.245 13.63 0 17.898 3.083 10.548 11.56 19.023 22.114 22.105 4.268 1.244 13.636 1.244 17.904 0 10.553-3.082 19.031-11.557 22.114-22.105 1.245-4.268 1.245-13.631 0-17.898C59.983 12.515 51.506 4.041 40.952.959c-4.92-1.422-14.17-1.245-19.03.415Zm17.846 1.955c9.308 2.727 16.66 9.483 20.157 18.49 1.838 4.682 2.194 12.98.83 17.66-1.6 5.572-4.328 10.076-8.419 13.868-6.106 5.69-12.45 8.297-20.335 8.297-8.3 0-15.652-3.2-21.343-9.304-5.751-6.104-8.3-12.445-8.3-20.387C2.357 15.656 15.459 2.5 31.763 2.44c2.727-.059 6.166.356 8.004.89Z"/>
  <path d="M24.293 6.826c-5.929 1.837-12.213 6.875-15.118 12.09-4.388 7.763-4.388 18.43 0 26.253 2.015 3.556 3.675 5.038 4.565 4.149.593-.593.474-1.126-.297-2.37C8.404 39.301 7.1 31.894 9.471 24.96c2.312-6.875 6.284-11.379 12.865-14.401 7.411-3.497 16.304-2.726 23.122 2.015 3.557 2.43 5.988 1.54 3.024-1.126-2.075-1.837-5.514-3.615-8.893-4.623-3.795-1.126-11.68-1.126-15.296 0Z"/>
  <path d="M31.23 9.849c-.238.237-.416 1.718-.416 3.318 0 2.49.178 2.845 1.245 2.845 1.067 0 1.186-.297 1.008-3.082-.178-2.844-.89-4.03-1.838-3.081ZM20.38 13.108c-.593 1.008 1.008 3.497 2.253 3.497s1.304-.534.355-2.667c-.711-1.54-1.897-1.956-2.608-.83ZM41.308 13.523c-1.364 1.482-1.304 3.082.06 3.082 1.244 0 2.845-2.49 2.252-3.497-.593-.948-1.186-.83-2.312.415ZM50.023 15.004c-.118.415.652 2.37 1.838 4.327 4.032 6.637 4.861 13.215 2.609 19.912-2.253 6.697-6.285 11.2-12.806 14.223-7.411 3.497-16.304 2.726-23.122-2.015-2.55-1.718-4.684-1.896-4.21-.296.415 1.304 6.64 5.037 10.02 5.985 6.64 1.897 14.94.949 20.75-2.31 3.083-1.66 8.123-6.757 9.901-9.898 4.98-8.77 3.854-22.342-2.43-29.394-1.364-1.482-2.076-1.66-2.55-.534Z"/>
  <path d="M18.957 20.041c0 .534 2.253 3.26 5.04 6.045 3.32 3.319 5.039 5.452 5.039 6.341 0 1.837 2.49 3.438 4.09 2.608.653-.356 1.423-1.008 1.66-1.482.297-.414 2.787-1.126 5.81-1.6 4.21-.652 5.396-1.066 5.514-1.896.237-1.245-1.778-1.363-7.47-.356-2.786.474-3.972.474-4.446 0-.356-.355-1.186-.652-1.898-.652-.71 0-3.142-1.955-6.225-5.037-4.861-4.919-7.114-6.163-7.114-3.97Zm13.636 11.972a.594.594 0 0 1-.593.592c-.296 0-.593-.296-.593-.592 0-.356.297-.593.593-.593.356 0 .593.237.593.593ZM12.732 20.812c-.534.83 1.423 2.904 2.786 2.904 1.364 0 1.423-1.719.06-2.726-1.305-.948-2.372-1.067-2.846-.178ZM48.482 20.99c-1.127.83-1.483 2.726-.475 2.726 1.364 0 3.617-1.482 3.439-2.311-.237-1.245-1.72-1.422-2.964-.415ZM9.768 31.42c-.712 1.186.414 1.778 3.32 1.778 2.49 0 2.905-.178 2.905-1.185 0-1.007-.415-1.185-2.905-1.185-1.66 0-3.143.237-3.32.593ZM48.007 32.013c0 1.126.297 1.244 3.143 1.067 2.252-.12 3.082-.415 3.082-1.067 0-.652-.83-.948-3.082-1.067-2.846-.178-3.143-.06-3.143 1.067ZM13.8 41.021c-1.483.711-1.78 1.896-.712 2.608 1.008.592 3.498-1.008 3.498-2.252 0-1.186-.83-1.304-2.787-.356ZM47.415 41.376c0 .593.652 1.422 1.422 1.837 2.372 1.304 3.795-.474 1.72-2.074-1.542-1.126-3.142-1.007-3.142.237ZM20.795 48.844c-1.305 2.37.474 3.792 2.075 1.659.415-.534.83-1.482.83-2.074 0-1.541-2.016-1.245-2.905.415ZM40.3 48.014c0 1.185 1.423 3.555 2.134 3.555 1.245 0 1.601-1.185.771-2.726-.711-1.363-2.905-2.014-2.905-.83ZM30.933 51.096c.118 2.31.415 3.14 1.067 3.14.652 0 .949-.83 1.067-3.14.178-2.786.06-3.082-1.067-3.082s-1.245.296-1.067 3.082Z"/>
</svg>
