<svg xmlns="http://www.w3.org/2000/svg" width="64" height="64" viewBox="0 0 64 64" fill="currentColor">
  <path d="M30.374 2.311c-1.482 1.482-2.193 2.667-1.956 3.26.593 1.48 1.719 1.125 3.793-1.127 1.067-1.125 2.37-2.074 2.963-2.074 1.304 0 19.14 17.719 19.14 18.963 0 .474-1.955 2.786-4.266 5.156l-4.267 4.326H23.262l3.082-3.14c1.719-1.72 3.082-3.556 3.082-4.15 0-2.014-2.193-.947-6.223 3.142-3.08 3.14-4.503 4.148-5.748 4.148-2.43 0-4.444 1.126-5.214 2.963-.415 1.066-.593 5.926-.474 14.637.177 11.91.296 13.215 1.303 14.34C14.196 64 14.611 64 36.892 64c22.578 0 22.697 0 23.941-1.304.89-.948 1.185-2.074 1.185-4.444 0-2.726-.177-3.14-1.185-3.14-1.007 0-1.185.414-1.185 2.606 0 1.482-.356 2.845-.83 3.26-.533.474-6.933.652-22.34.533l-21.57-.178-.178-7.289-.178-7.23h45.037l.178 3.379c.118 2.607.414 3.437 1.066 3.437.77 0 .89-1.6 1.067-9.956.118-9.896.118-9.956-1.304-11.378-1.363-1.363-1.955-1.481-6.4-1.481h-4.86l3.675-3.734c3.26-3.259 3.674-3.97 3.674-6.044 0-2.193-.415-2.785-9.363-11.674C38.018.059 37.96 0 35.292 0c-2.31 0-2.962.296-4.918 2.311ZM58.7 34.133c.533.474.948 1.719.948 2.667v1.719H14.611v-2.075c0-1.303.355-2.251 1.067-2.607.592-.415 8.71-.652 21.57-.652 17.896 0 20.681.119 21.452.948Zm.948 8.534v1.777H14.611V40.89h45.037v1.778Z"/>
  <path d="M14.196 18.489c-14.4 14.4-14.281 14.163-9.6 19.259 4.86 5.215 5.63 5.689 6.282 3.97.237-.592-.77-2.014-3.022-4.326-1.837-1.837-3.319-3.792-3.319-4.326 0-.533 5.333-6.34 11.911-12.859C27.708 8.89 29.544 6.518 26.937 6.518c-.415 0-6.163 5.393-12.74 11.97ZM30.018 9.007c-3.792 3.911-2.903 8.178 1.719 8.178 2.785 0 6.578-3.911 6.578-6.696 0-2.49-1.541-3.97-4.09-3.97-1.422 0-2.429.592-4.207 2.488Zm5.748.83c.356 1.007-3.081 4.978-4.385 4.978-1.718 0-1.481-1.897.474-3.911 2.134-2.193 3.319-2.549 3.912-1.067Z"/>
  <path d="M15.56 25.422c-6.993 7.052-8.297 8.949-5.986 8.949 1.185 0 15.111-14.223 15.111-15.467 0-.652-.355-1.126-.77-1.126-.415 0-4.148 3.437-8.356 7.645ZM31.263 53.57c-.415.474-.652 2.015-.533 3.437l.177 2.549 7.586.177 7.526.178v-3.26c0-2.37-.237-3.258-.948-3.555-.534-.177-3.675-.355-7.052-.355-4.563 0-6.282.237-6.756.83Zm12.385 3.023c0 .71-1.007.888-5.333.888-4.326 0-5.333-.177-5.333-.888 0-.712 1.007-.89 5.333-.89 4.326 0 5.333.178 5.333.89ZM48.448 53.57c-.415.475-.652 2.015-.533 3.438l.178 2.548 4.088.178c2.904.118 4.267-.06 4.563-.593.83-1.304.593-4.504-.414-5.452-1.186-1.244-6.934-1.304-7.882-.118Zm5.867 3.023c0 .592-.652.889-2.074.889-1.422 0-2.074-.297-2.074-.89 0-.592.651-.888 2.074-.888 1.422 0 2.074.296 2.074.889ZM19.944 58.666c0 1.067.356 1.186 4.208 1.186 3.674 0 4.148-.119 3.97-1.067-.178-.83-.948-1.067-4.207-1.185-3.674-.178-3.97-.06-3.97 1.066Z"/>
</svg>
