<svg xmlns="http://www.w3.org/2000/svg" width="116" height="24" viewBox="0 0 116 24" fill="currentColor" >
  <path d="M10.187.03c-.845.112-1.396.23-2.295.488-.815.235-2.06.835-2.93 1.407-.273.185-1.147.84-1.147.864 0 .034.16-.034.366-.166.708-.44 2.217-1.04 3.198-1.27.513-.117.806-.17 1.49-.273.297-.044.625-.098.732-.122C9.9.885 11.154.763 11.574.763c.693 0 2.095.185 2.764.366.503.141.737.21.952.288.122.049.264.098.317.112.254.069 1.553.738 1.992 1.026a11.464 11.464 0 0 1 3.003 2.812c.386.518.948 1.51 1.246 2.183.234.527.473 1.22.473 1.362 0 .044.02.103.044.127.025.03.064.171.093.318.03.146.098.522.161.83.093.478.108.732.113 1.733.004 1.162-.02 1.46-.2 2.32a10.885 10.885 0 0 1-1.656 3.94c-.845 1.26-1.973 2.383-3.17 3.165-.16.102-.35.23-.424.278-.146.098-1.152.596-1.504.742-.39.161-1.196.41-1.665.518-.254.053-.537.122-.63.146-.664.171-2.783.171-3.784-.005-.293-.049-.689-.117-.88-.141-.58-.088-1.156-.196-1.44-.274l-.464-.127a14.92 14.92 0 0 1-1.22-.405c-.078-.034-.269-.117-.415-.186a15.432 15.432 0 0 0-.44-.195 7.425 7.425 0 0 1-.596-.317c-.239-.137-.43-.23-.43-.21 0 .034.528.444.972.757.63.44 1.973 1.152 2.173 1.152.044 0 .078.015.078.04 0 .019.093.063.206.097.117.039.278.097.356.132.137.063.938.283 1.465.405 1.235.288 2.964.327 4.42.107.556-.083 1.645-.351 1.977-.488.053-.02.283-.112.512-.2.982-.376 2.28-1.128 3.15-1.822.43-.346 1.04-.942 1.558-1.523.922-1.035 1.845-2.652 2.27-3.975.059-.176.132-.415.171-.537a8.17 8.17 0 0 0 .151-.586c.044-.2.103-.454.128-.562.156-.649.234-2.46.141-3.271-.083-.777-.19-1.387-.337-1.929-.053-.2-.112-.42-.132-.488a1.289 1.289 0 0 0-.068-.22l-.151-.415c-.601-1.719-1.817-3.52-3.209-4.766-1.709-1.523-3.676-2.51-5.82-2.905a13.579 13.579 0 0 1-.513-.103c-.293-.063-2.71-.097-3.125-.039Z"/>
  <path d="M9.65 1.67c-1.455.206-2.495.523-3.618 1.1-1.651.844-3.096 2.192-4.088 3.794-1.635 2.641-1.977 6.01-.908 8.97.205.566.777 1.69 1.128 2.222 1.529 2.295 4.097 3.97 6.802 4.438.581.103 2.159.25 2.661.25 1.988 0 4.073-.63 5.728-1.734.718-.474 1.86-1.446 1.992-1.69.044-.083-.034-.132-.747-.478a19.36 19.36 0 0 0-3.237-1.25 13.117 13.117 0 0 1-.679-.21c-.02-.01.074-.093.215-.181 1.294-.8 1.558-2.47.567-3.574a2.318 2.318 0 0 0-3.375-.088c-.83.835-.918 2.197-.195 3.076.176.215.176.283.005.244-.85-.195-4.326-.288-5.82-.151a24.958 24.958 0 0 0-3.087.454c-.195.039-.385.063-.425.044-.039-.015-.214-.317-.39-.674a9.542 9.542 0 0 1-.02-8.452c1.065-2.154 2.793-3.765 5.025-4.698.996-.42 2.466-.708 3.574-.708.489 0 1.416.093 1.92.195.136.025.473.083.756.127 1.358.21 2.813.728 3.877 1.382.181.112.342.196.357.186.01-.015-.161-.171-.386-.352-1.353-1.089-2.822-1.763-4.634-2.129-.415-.088-.723-.107-1.68-.117a24.083 24.083 0 0 0-1.318.005Zm4.6 12.404c.752.464.503 1.64-.376 1.758-.894.122-1.456-.904-.865-1.578.337-.38.806-.449 1.24-.18Z"/>
  <path d="M15.612 5.035c-.225.67-.469.904-1.162 1.123-.156.05-.284.098-.284.118 0 .014.137.073.308.127.415.131.571.21.752.38.161.152.454.772.454.962 0 .205.113.064.244-.298a4.98 4.98 0 0 1 .181-.459c.142-.253.488-.468 1.006-.615.127-.034.23-.083.23-.102 0-.02-.108-.069-.24-.108-.366-.107-.776-.317-.879-.449-.078-.103-.166-.293-.44-.972-.028-.073-.063-.014-.17.293ZM3.38 6.603a.5.5 0 0 0-.103.176c0 .048-.014.048.674.21 1.123.258 1.973.664 3.38 1.601.746.498 2.09 1.485 2.197 1.616.078.098-.02.098-3.174-.024-1.631-.059-4.019-.142-4.297-.142h-.225l-.059.279c-.029.156-.068.415-.087.58l-.03.299.845.053c.469.035 1.455.093 2.192.132 2.867.157 4.005.225 4.615.269.352.03.776.063.952.073 2.285.176 4.053.4 4.488.576a2.83 2.83 0 0 1 1.69 1.963c.063.264.077.454.058.82l-.03.474 1.231-.01 1.23-.014.064-.44c.054-.346.059-.547.015-.957-.142-1.372-.796-2.27-2.154-2.969-1.07-.547-2.446-.874-4.79-1.123l-.855-.093-.659-.405a43.19 43.19 0 0 0-1.9-1.103 99.573 99.573 0 0 0-.512-.284c-.566-.322-1.826-.918-2.31-1.093a12.957 12.957 0 0 0-1.865-.523c-.474-.088-.464-.088-.581.059ZM12.98 7.242c-.088.225-.185.313-.473.445-.123.053-.181.102-.132.102.049.005.175.05.283.108.151.073.225.156.312.346l.113.245.107-.24c.083-.195.147-.263.313-.351.117-.054.239-.103.278-.103.093 0-.107-.141-.205-.146-.122 0-.327-.2-.41-.406a.644.644 0 0 0-.093-.18.644.644 0 0 0-.093.18Z"/>
  <path d="M10.25 12.399c-.376.195-.625.532-.888 1.22l-.181.46-3.452.57c-1.895.313-3.458.582-3.472.597-.015.01 0 .083.024.156l.044.132 4.322.014c2.373.005 4.33-.005 4.35-.024.02-.024.01-.161-.02-.308a1.873 1.873 0 0 1 .006-.64c.132-.903.527-1.542 1.27-2.036.136-.092.253-.185.253-.205 0-.039-.898-.097-1.523-.097-.381 0-.45.014-.733.16ZM28.84 17V8.36h5.46v1.014h-4.392v2.706h3.672v1.014h-3.672v2.892H34.3V17h-5.46Zm8.744.18c-.484 0-.89-.088-1.218-.264a1.88 1.88 0 0 1-.738-.708 1.927 1.927 0 0 1-.246-.96c0-.34.064-.634.192-.882.132-.252.316-.46.552-.624.236-.168.518-.3.846-.396a9.676 9.676 0 0 1 1.032-.216 35.38 35.38 0 0 1 1.164-.174c.392-.052.758-.102 1.098-.15l-.384.222c.012-.576-.104-1.002-.348-1.278-.24-.276-.656-.414-1.248-.414-.392 0-.736.09-1.032.27-.292.176-.498.464-.618.864l-1.014-.306c.156-.568.458-1.014.906-1.338.448-.324 1.038-.486 1.77-.486.588 0 1.092.106 1.512.318.424.208.728.524.912.948.092.2.15.418.174.654.024.232.036.476.036.732V17h-.948v-1.554l.222.144c-.244.524-.586.92-1.026 1.188-.436.268-.968.402-1.596.402Zm.162-.894c.384 0 .716-.068.996-.204.284-.14.512-.322.684-.546.172-.228.284-.476.336-.744.06-.2.092-.422.096-.666.008-.248.012-.438.012-.57l.372.162c-.348.048-.69.094-1.026.138-.336.044-.654.092-.954.144-.3.048-.57.106-.81.174a2.639 2.639 0 0 0-.498.216 1.131 1.131 0 0 0-.372.342.89.89 0 0 0-.138.51c0 .176.044.344.132.504.092.16.232.29.42.39.192.1.442.15.75.15Zm7.194.888c-.772 0-1.406-.168-1.902-.504-.492-.34-.794-.814-.906-1.422l1.092-.174c.088.352.29.632.606.84.316.204.708.306 1.176.306.444 0 .792-.092 1.044-.276a.88.88 0 0 0 .378-.75.722.722 0 0 0-.126-.444c-.084-.116-.258-.224-.522-.324-.26-.1-.654-.22-1.182-.36-.572-.152-1.022-.31-1.35-.474-.328-.164-.562-.354-.702-.57a1.414 1.414 0 0 1-.21-.786c0-.38.104-.712.312-.996.208-.288.498-.51.87-.666.376-.156.812-.234 1.308-.234.492 0 .932.078 1.32.234.388.156.7.378.936.666.24.284.382.616.426.996l-1.092.198a1.178 1.178 0 0 0-.504-.822c-.28-.2-.642-.306-1.086-.318-.42-.016-.762.058-1.026.222-.26.164-.39.386-.39.666 0 .156.048.29.144.402.1.112.282.218.546.318.268.1.656.214 1.164.342.572.144 1.022.302 1.35.474.332.168.568.368.708.6.14.228.21.51.21.846 0 .624-.23 1.116-.69 1.476-.46.356-1.094.534-1.902.534Zm4.581 2.706 1.254-3.408.018 1.008-2.832-6.96h1.122l2.22 5.598h-.384l2.082-5.598h1.086l-3.528 9.36h-1.038Zm11.512-2.7c-.86 0-1.59-.19-2.19-.57a3.664 3.664 0 0 1-1.374-1.584C57.157 14.35 57 13.568 57 12.68c0-.888.156-1.67.468-2.346a3.664 3.664 0 0 1 1.374-1.584c.6-.38 1.33-.57 2.19-.57 1 0 1.822.254 2.466.762.648.508 1.094 1.192 1.338 2.052l-1.086.288c-.176-.644-.49-1.152-.942-1.524-.452-.372-1.044-.558-1.776-.558-.644 0-1.18.146-1.608.438-.428.292-.75.7-.966 1.224-.216.52-.326 1.126-.33 1.818-.004.688.102 1.294.318 1.818.216.52.54.928.972 1.224.432.292.97.438 1.614.438.732 0 1.324-.186 1.776-.558.452-.376.766-.884.942-1.524l1.086.288c-.244.856-.69 1.54-1.338 2.052-.644.508-1.466.762-2.466.762Zm6.962 0c-.485 0-.89-.088-1.219-.264a1.88 1.88 0 0 1-.737-.708 1.927 1.927 0 0 1-.246-.96c0-.34.063-.634.191-.882.133-.252.317-.46.553-.624.235-.168.517-.3.845-.396a9.676 9.676 0 0 1 1.032-.216 35.38 35.38 0 0 1 1.165-.174c.392-.052.758-.102 1.098-.15l-.385.222c.013-.576-.103-1.002-.347-1.278-.24-.276-.656-.414-1.248-.414-.392 0-.737.09-1.032.27-.293.176-.499.464-.619.864l-1.014-.306c.157-.568.459-1.014.907-1.338.448-.324 1.038-.486 1.77-.486.587 0 1.091.106 1.511.318.424.208.728.524.912.948.093.2.15.418.174.654.025.232.037.476.037.732V17h-.949v-1.554l.222.144c-.243.524-.585.92-1.025 1.188-.436.268-.968.402-1.596.402Zm.161-.894c.384 0 .716-.068.996-.204.284-.14.513-.322.684-.546.172-.228.285-.476.337-.744.06-.2.091-.422.096-.666.007-.248.011-.438.011-.57l.373.162c-.349.048-.69.094-1.027.138-.336.044-.654.092-.954.144-.3.048-.57.106-.81.174a2.639 2.639 0 0 0-.497.216 1.131 1.131 0 0 0-.372.342.89.89 0 0 0-.138.51c0 .176.043.344.132.504.092.16.232.29.42.39.192.1.442.15.75.15Zm4.746.714v-6.48h.954v1.566l-.155-.204c.076-.2.174-.384.294-.552.123-.168.261-.306.413-.414.168-.136.358-.24.57-.312.213-.072.428-.114.648-.126a2.08 2.08 0 0 1 .618.042v1.002a2.025 2.025 0 0 0-.737-.048 1.5 1.5 0 0 0-.745.294c-.207.148-.37.328-.486.54-.111.212-.19.442-.233.69a4.218 4.218 0 0 0-.067.75V17h-1.073Zm6.88 0V8.36h3.413c.084 0 .184.004.3.012.116.004.228.016.336.036.468.072.86.232 1.176.48.32.248.56.562.72.942.16.376.24.794.24 1.254 0 .668-.174 1.248-.522 1.74-.348.488-.858.794-1.53.918l-.408.066H80.85V17h-1.068Zm5.141 0-1.704-3.516 1.056-.324L86.147 17h-1.224Zm-4.074-4.206h2.31c.076 0 .162-.004.258-.012.1-.008.194-.022.282-.042.276-.064.5-.18.672-.348.176-.172.304-.372.384-.6.08-.232.12-.468.12-.708 0-.24-.04-.474-.12-.702a1.537 1.537 0 0 0-.384-.606 1.322 1.322 0 0 0-.672-.348 1.26 1.26 0 0 0-.282-.042 3.139 3.139 0 0 0-.258-.012h-2.31v3.42Zm9.428 4.386c-.636 0-1.192-.14-1.668-.42a2.942 2.942 0 0 1-1.104-1.182c-.264-.508-.396-1.1-.396-1.776 0-.708.13-1.32.39-1.836.26-.52.622-.92 1.086-1.2.468-.284 1.016-.426 1.644-.426.652 0 1.206.15 1.662.45.46.3.804.728 1.032 1.284.232.556.332 1.218.3 1.986h-1.08v-.384c-.012-.796-.174-1.39-.486-1.782-.312-.396-.776-.594-1.392-.594-.66 0-1.162.212-1.506.636-.344.424-.516 1.032-.516 1.824 0 .764.172 1.356.516 1.776.344.42.834.63 1.47.63.428 0 .8-.098 1.116-.294a2 2 0 0 0 .744-.846l1.026.354a2.906 2.906 0 0 1-1.14 1.332 3.16 3.16 0 0 1-1.698.468Zm-2.394-3.12v-.858h4.788v.858h-4.788ZM98.997 17v-3.246c0-.308-.028-.604-.084-.888a2.227 2.227 0 0 0-.282-.762 1.457 1.457 0 0 0-.54-.54c-.224-.132-.508-.198-.852-.198a1.88 1.88 0 0 0-.732.138 1.432 1.432 0 0 0-.558.408 1.98 1.98 0 0 0-.366.696 3.376 3.376 0 0 0-.126.978l-.702-.216c0-.628.112-1.166.336-1.614.228-.452.546-.798.954-1.038.412-.244.896-.366 1.452-.366.42 0 .778.066 1.074.198.296.132.542.308.738.528.196.216.35.46.462.732.112.268.19.542.234.822.048.276.072.538.072.786V17h-1.08Zm-4.62 0v-6.48h.96v1.734h.12V17h-1.08Zm10.878 0a4.802 4.802 0 0 1-1.14.09 2.53 2.53 0 0 1-.996-.222 1.432 1.432 0 0 1-.666-.648 1.917 1.917 0 0 1-.21-.774 29.804 29.804 0 0 1-.012-.894V8.72h1.068v5.784c0 .264.002.49.006.678.008.188.05.35.126.486.144.256.372.406.684.45.316.044.696.032 1.14-.036V17Zm-4.338-5.598v-.882h4.338v.882h-4.338Zm7.495 5.778c-.484 0-.89-.088-1.218-.264a1.88 1.88 0 0 1-.738-.708 1.927 1.927 0 0 1-.246-.96c0-.34.064-.634.192-.882.132-.252.316-.46.552-.624.236-.168.518-.3.846-.396a9.676 9.676 0 0 1 1.032-.216 35.38 35.38 0 0 1 1.164-.174c.392-.052.758-.102 1.098-.15l-.384.222c.012-.576-.104-1.002-.348-1.278-.24-.276-.656-.414-1.248-.414-.392 0-.736.09-1.032.27-.292.176-.498.464-.618.864l-1.014-.306c.156-.568.458-1.014.906-1.338.448-.324 1.038-.486 1.77-.486.588 0 1.092.106 1.512.318.424.208.728.524.912.948.092.2.15.418.174.654.024.232.036.476.036.732V17h-.948v-1.554l.222.144c-.244.524-.586.92-1.026 1.188-.436.268-.968.402-1.596.402Zm.162-.894c.384 0 .716-.068.996-.204.284-.14.512-.322.684-.546.172-.228.284-.476.336-.744.06-.2.092-.422.096-.666.008-.248.012-.438.012-.57l.372.162c-.348.048-.69.094-1.026.138-.336.044-.654.092-.954.144-.3.048-.57.106-.81.174a2.639 2.639 0 0 0-.498.216 1.131 1.131 0 0 0-.372.342.89.89 0 0 0-.138.51c0 .176.044.344.132.504.092.16.232.29.42.39.192.1.442.15.75.15Zm4.866.714V8.18h1.068V17h-1.068Z"/>
</svg>
