<svg xmlns="http://www.w3.org/2000/svg" width="64" height="64" viewBox="0 0 64 64" fill="currentColor">
  <path d="M27.165.08c-2.252.3-3.724.612-6.12 1.303-2.174.625-5.495 2.226-7.813 3.75-.729.495-3.06 2.24-3.06 2.305 0 .09.43-.092.977-.443 1.888-1.172 5.912-2.774 8.529-3.386 1.367-.312 2.148-.455 3.971-.729.795-.117 1.667-.26 1.954-.325.794-.196 4.14-.521 5.26-.521 1.85 0 5.587.494 7.37.976 1.342.378 1.967.56 2.54.769.325.13.703.26.846.299.677.182 4.14 1.966 5.313 2.735a30.57 30.57 0 0 1 8.008 7.5c1.029 1.38 2.526 4.024 3.32 5.82.625 1.407 1.263 3.256 1.263 3.633 0 .118.052.274.118.339.065.078.169.456.247.846.078.391.26 1.394.43 2.214.247 1.276.286 1.953.3 4.623.012 3.099-.053 3.893-.535 6.185-.807 3.867-2.213 7.214-4.414 10.508-2.253 3.36-5.26 6.354-8.45 8.438-.43.273-.938.612-1.134.742-.39.26-3.073 1.589-4.01 1.98-1.042.429-3.19 1.093-4.44 1.38a44.98 44.98 0 0 0-1.68.39c-1.771.456-7.422.456-10.092-.013-.781-.13-1.836-.312-2.344-.377-1.55-.235-3.086-.521-3.841-.73-.39-.104-.95-.26-1.237-.338-.716-.183-2.774-.873-3.255-1.081-.209-.091-.717-.313-1.107-.495s-.925-.416-1.172-.52c-.248-.105-.964-.482-1.589-.847-.638-.365-1.146-.612-1.146-.56 0 .091 1.407 1.185 2.592 2.018 1.68 1.172 5.26 3.073 5.794 3.073.117 0 .209.04.209.105 0 .052.247.169.546.26.313.104.743.26.95.352.365.169 2.501.755 3.907 1.08 3.295.769 7.904.873 11.785.287 1.484-.221 4.388-.938 5.273-1.302.144-.052.756-.3 1.368-.534 2.617-1.003 6.08-3.008 8.398-4.857 1.146-.925 2.774-2.513 4.154-4.063 2.461-2.76 4.922-7.07 6.055-10.6.156-.468.352-1.106.456-1.432.104-.325.286-1.028.404-1.562.117-.534.273-1.211.338-1.498.417-1.732.625-6.562.378-8.724-.222-2.07-.508-3.698-.899-5.143-.143-.534-.3-1.12-.351-1.302a3.438 3.438 0 0 0-.183-.587c-.052-.143-.234-.637-.403-1.106-1.602-4.584-4.844-9.389-8.555-12.71C47.83 4.144 42.583 1.514 36.866.459A36.26 36.26 0 0 1 35.5.185c-.781-.17-7.227-.26-8.334-.105Z"/>
  <path d="M25.733 4.456c-3.88.547-6.654 1.393-9.649 2.93-4.401 2.252-8.256 5.846-10.899 10.117-4.362 7.045-5.274 16.03-2.422 23.92.547 1.51 2.07 4.506 3.008 5.925 4.076 6.12 10.925 10.587 18.139 11.837 1.55.273 5.755.664 7.096.664 5.3 0 10.86-1.68 15.275-4.623 1.914-1.263 4.96-3.854 5.312-4.505.117-.222-.09-.352-1.992-1.276-2.917-1.42-5.56-2.449-8.633-3.334-.925-.273-1.745-.52-1.81-.56-.052-.026.195-.247.573-.482 3.45-2.135 4.154-6.589 1.51-9.531a6.181 6.181 0 0 0-8.997-.235c-2.214 2.227-2.448 5.86-.521 8.204.468.573.468.755.013.65-2.266-.52-11.537-.767-15.522-.403-3.138.287-5.612.651-8.23 1.211-.52.104-1.028.17-1.132.117-.104-.039-.573-.846-1.042-1.797-3.529-7.148-3.542-15.482-.052-22.54 2.839-5.742 7.448-10.04 13.4-12.526 2.655-1.12 6.575-1.888 9.53-1.888 1.303 0 3.777.247 5.118.52.365.066 1.263.222 2.018.34 3.62.559 7.5 1.94 10.34 3.684.481.3.91.521.95.495.026-.04-.43-.456-1.029-.938-3.607-2.903-7.526-4.7-12.357-5.677-1.107-.234-1.927-.286-4.48-.312-1.718-.026-3.294-.013-3.515.013ZM37.999 37.53c2.005 1.237 1.341 4.375-1.003 4.688-2.383.325-3.88-2.41-2.304-4.206.898-1.016 2.148-1.198 3.307-.482Z"/>
  <path d="M41.632 13.427c-.6 1.784-1.25 2.41-3.1 2.995-.416.13-.754.26-.754.313 0 .039.364.195.82.338 1.107.352 1.523.56 2.005 1.016.43.404 1.211 2.057 1.211 2.565 0 .547.3.17.651-.794.183-.52.404-1.08.482-1.224.378-.677 1.302-1.25 2.682-1.64.339-.092.613-.222.613-.274 0-.052-.287-.183-.639-.287-.976-.286-2.07-.846-2.343-1.198-.209-.273-.443-.78-1.172-2.59-.078-.196-.17-.04-.456.78ZM9.013 17.607c-.156.196-.273.404-.273.469 0 .13-.04.13 1.797.56 2.995.69 5.26 1.77 9.01 4.271 1.993 1.328 5.574 3.959 5.86 4.31.209.26-.052.26-8.464-.065-4.349-.156-10.716-.378-11.459-.378h-.598l-.157.742a27.62 27.62 0 0 0-.234 1.55l-.078.794 2.252.144c1.25.09 3.88.247 5.847.351 7.644.417 10.678.6 12.305.716.938.078 2.07.17 2.54.196 6.094.468 10.807 1.067 11.966 1.536 2.253.912 3.907 2.826 4.506 5.235.169.703.208 1.21.156 2.187l-.078 1.264 3.281-.026 3.281-.04.17-1.172c.143-.924.156-1.458.039-2.552-.378-3.659-2.123-6.055-5.743-7.917-2.851-1.458-6.523-2.33-12.774-2.995l-2.278-.247-1.758-1.08a115.242 115.242 0 0 0-5.066-2.944c-.468-.26-1.08-.599-1.367-.755-1.51-.86-4.87-2.448-6.159-2.917a34.55 34.55 0 0 0-4.974-1.393c-1.263-.234-1.237-.234-1.55.156ZM34.613 19.313c-.234.599-.494.833-1.263 1.185-.325.143-.482.273-.351.273.13.014.468.13.755.287.404.195.599.417.833.924l.3.652.286-.639c.222-.52.391-.703.834-.937.312-.143.638-.273.742-.273.247 0-.287-.378-.547-.391-.325 0-.872-.534-1.094-1.08-.104-.261-.221-.483-.247-.483-.026 0-.143.222-.248.482Z"/>
  <path d="M27.334 33.064c-1.002.52-1.666 1.419-2.37 3.255l-.481 1.224-9.206 1.523c-5.053.834-9.22 1.55-9.258 1.59-.04.025 0 .22.065.416l.117.351 11.524.04c6.328.012 11.55-.014 11.602-.066.052-.065.026-.43-.052-.82-.091-.508-.091-.977.013-1.706.351-2.409 1.406-4.115 3.385-5.43.365-.247.677-.495.677-.547 0-.104-2.396-.26-4.062-.26-1.016 0-1.198.039-1.954.43Z"/>
</svg>
