<svg xmlns="http://www.w3.org/2000/svg" width="64" height="64" viewBox="0 0 64 64" fill="currentColor">
  <path d="M21.89 1.363C11.332 4.978 3.86 12.741.834 23.348c-.77 2.726-.949 5.096-.77 10.37C.3 40.356.36 40.77 2.731 45.63 8.545 57.6 18.746 64 31.913 64c9.075 0 15.955-2.607 22.3-8.533C60.739 49.422 64 41.6 64 32.059c0-6.577-.949-10.489-3.855-15.822-1.839-3.437-1.898-3.555-.653-3.555.89.059 1.246-.297 1.246-1.126 0-.949-.593-1.245-3.203-1.66-1.72-.296-3.38-.296-3.618 0-.296.237-.593 1.956-.712 3.734-.118 2.726 0 3.259.89 3.437.593.118 1.186-.297 1.483-1.126.474-1.245.534-1.245 1.72.71 3.677 5.927 5.22 14.579 3.796 21.393-2.254 10.608-11.98 20.504-22.657 22.934-9.608 2.252-20.047-.89-27.282-8.237C-7.114 34.31 4.69 4.385 31.082 2.193c1.127-.06 1.838-.474 1.957-1.186C33.218.12 32.743 0 29.481 0c-2.253 0-5.219.533-7.591 1.363Z"/>
  <path d="M24.677 8.889c-7.947 2.489-13.7 8.415-16.013 16.415-.83 2.666-.83 3.14-.06 3.792 1.127.948 1.661.296 2.61-3.2.415-1.54 1.542-4.03 2.55-5.51l1.78-2.668 1.364 1.304c1.364 1.304 3.202 1.185 3.202-.178 0-.355-.533-1.244-1.186-1.955-1.423-1.541-1.245-1.719 3.262-4.09 1.661-.829 4.211-1.718 5.753-1.895l2.788-.415.178 2.015c.237 2.666 1.898 2.726 2.135.059.178-1.482.475-1.896 1.483-1.896 2.313 0 5.812 1.244 8.837 3.081l2.906 1.778-1.186 1.303c-.712.712-1.245 1.66-1.245 2.015 0 1.363 1.838 1.482 3.202.178 1.602-1.481 1.78-1.363 4.211 3.378.89 1.718 1.78 4.326 1.898 5.748.297 2.548.297 2.608-1.66 2.785-2.67.237-2.729 1.897-.06 2.134 1.661.177 1.898.414 1.898 1.837 0 2.252-1.482 6.4-3.321 9.125l-1.542 2.312-1.364-1.304c-1.483-1.363-3.262-1.245-3.262.178 0 .474.533 1.303 1.186 1.896.652.593 1.008 1.245.89 1.54-.534.83-5.754 3.497-8.245 4.149-2.669.711-3.558 1.6-2.669 2.667.475.592 1.305.533 3.678-.178C51.9 51.496 59.196 37.926 55.104 24.77 51.13 11.97 37.429 4.8 24.677 8.89Z"/>
  <path d="M23.491 25.719c-.474 1.244.771 2.133 2.906 2.133 1.068 0 2.135.296 2.313.593.534.889-.77 2.37-2.076 2.37-1.542 0-3.024 2.015-3.38 4.563-.416 3.081.593 3.852 4.685 3.615 2.67-.178 3.144-.356 3.144-1.363 0-.948-.475-1.245-2.55-1.363-2.255-.178-2.551-.356-2.373-1.422.119-.83.771-1.423 1.838-1.719 2.61-.711 3.381-1.66 3.381-4.148 0-1.66-.356-2.489-1.305-3.14-1.66-1.186-6.168-1.245-6.583-.12ZM34.108 25.6c-.12.415-.534 1.659-.89 2.785-.356 1.126-.653 2.666-.653 3.378 0 1.303.238 1.422 2.61 1.422h2.67l.177 2.785c.178 2.37.356 2.845 1.364 2.845 1.127 0 1.186-.415 1.186-6.815s-.059-6.815-1.186-6.815c-1.008 0-1.186.474-1.364 2.785-.178 2.43-.356 2.845-1.364 2.845-1.068 0-1.186-.238-.771-1.956.237-1.008.415-2.311.474-2.785.06-1.067-1.957-1.541-2.253-.474Z"/>
  <path d="M8.604 31.763c-1.245 1.185-1.186 2.904.237 7.467 2.432 7.94 8.363 13.748 16.548 16.118 6.405 1.896 7.77 1.008 7.77-4.622 0-4.326-.356-4.74-4.39-5.689-2.372-.533-3.143-.474-4.21.237-1.305.889-1.483.77-3.796-1.54-2.67-2.608-2.788-2.904-1.72-4.564.711-1.185-.178-6.103-1.424-7.585-.949-1.126-7.888-1.007-9.015.178Zm7.651 3.793c.297 1.777.178 2.607-.534 3.318-.534.474-.949 1.126-.949 1.422 0 1.067 4.033 5.69 6.406 7.348 2.313 1.66 2.55 1.719 3.558.77 1.246-1.125 3.203-1.303 4.923-.414.83.474 1.127 1.244 1.127 3.081v2.43l-2.669-.355c-8.303-1.186-16.429-9.304-17.378-17.304l-.296-2.667h2.728c2.669 0 2.669 0 3.084 2.37Z"/>
</svg>
