<svg xmlns="http://www.w3.org/2000/svg" width="64" height="64" viewBox="0 0 64 64" fill="currentColor">
  <path d="M25.182 2.09c-.237.177-.415 1.659-.415 3.2v2.844l-3.674.177-3.734.178-.177 5.156c-.178 5.096-.178 5.215-1.66 5.215-2.192 0-4.207 1.6-4.978 3.91-.83 2.43-.355 4.03 1.838 6.756 1.303 1.541 1.718 2.667 1.718 4.563v2.548h-3.437c-1.896 0-3.733.297-4.148.712-1.067 1.066-.948 7.525.178 7.94.474.237.889.948.889 1.66 0 2.133 1.185 2.725 5.392 2.725h4.03l.178 2.193.177 2.252 11.437.178c7.645.118 11.378.355 11.378.77 0 1.6 2.074 4.8 3.852 5.867 2.193 1.363 7.23 1.6 9.363.533 3.2-1.66 4.563-4.207 4.563-8.474 0-2.963-.237-3.556-2.133-5.63-1.126-1.303-2.904-2.548-3.97-2.844-1.66-.415-1.482-.474 1.955-.77l3.852-.297V1.971l-16.06-.178c-8.83-.06-16.177.06-16.414.296Zm29.807 20.918v18.37h-4.74v-5.037c0-4.622-.12-5.037-1.186-5.037-1.126 0-1.185.415-1.185 6.46 0 6.34 0 6.459-1.422 6.814-2.074.533-4.8 2.963-5.69 5.096l-.71 1.778H30.04c-8.534 0-10.015-.118-10.015-.889 0-.71.83-.889 4.03-.889 4.266 0 5.451-.592 5.451-2.666 0-.652.534-1.541 1.186-1.956 1.481-.889 1.659-5.155.237-7.11-.77-1.127-1.422-1.305-4.445-1.305H22.99v-2.43c0-1.718.474-2.962 1.718-4.562 2.252-2.845 2.667-4.445 1.837-6.933-.83-2.43-2.607-3.852-4.859-3.852-1.659 0-1.659-.06-1.659-3.852v-3.852h27.852v6.815c0 6.4.06 6.814 1.185 6.814 1.126 0 1.185-.414 1.185-8.296V8.193H27.137V4.637H54.99v18.37Zm-32-.593c1.66 1.66 1.482 3.082-.889 5.926-1.778 2.074-2.074 2.963-2.074 5.393 0 2.726-.119 2.903-1.482 2.903-1.362 0-1.48-.177-1.48-3.022 0-2.548-.297-3.378-2.134-5.63-3.497-4.266-2.074-6.636 4.089-6.696 2.014-.059 3.081.237 3.97 1.126Zm5.807 18.49.178 1.658H8.767V39.008l9.955.118 9.897.178.177 1.6Zm-1.777 5.332c-.178.593-2.548.83-8.356.948-6.933.12-8.119 0-8.119-.77s1.245-.889 8.356-.889c6.4 0 8.296.178 8.119.711Zm23.822 1.067c1.126 0 4.089 3.14 4.444 4.74.534 2.371-1.066 5.512-3.555 6.875-1.719.889-2.311.948-4.386.296-2.962-.83-4.385-2.844-4.385-6.044 0-3.556 3.615-6.874 6.578-6.104.474.118 1.008.237 1.304.237Z"/>
  <path d="M26.544 17.674c0 1.126.415 1.185 8.297 1.185 7.881 0 8.296-.059 8.296-1.185 0-1.126-.415-1.185-8.296-1.185-7.882 0-8.297.06-8.297 1.185ZM30.278 23.897c-.652 1.718.71 2.133 6.696 1.955 5.393-.178 5.867-.296 5.867-1.363 0-1.126-.474-1.185-6.104-1.363-5.096-.118-6.104 0-6.46.77ZM47.996 27.867c.119.77.593 1.363 1.067 1.363s.948-.593 1.067-1.363c.177-1.007-.119-1.304-1.067-1.304s-1.244.297-1.067 1.304ZM27.137 31.304c0 1.185.296 1.185 7.822 1.066 6.933-.177 7.882-.296 8.06-1.244.177-.889-.475-1.008-7.823-1.008-7.703 0-8.059.06-8.059 1.186ZM33.419 37.17c-.178.297-.178 1.008 0 1.482.296.83 1.185.948 4.918.83 4.03-.178 4.504-.297 4.504-1.363 0-1.067-.474-1.186-4.563-1.363-2.49-.119-4.682.059-4.86.414ZM49.656 51.749c-1.364 1.362-2.193 1.896-2.608 1.481-.296-.296-1.067-.592-1.718-.592-1.6 0-1.067 2.31.948 3.792l1.6 1.185 3.081-3.022c2.015-2.015 2.904-3.319 2.667-3.97-.593-1.482-1.778-1.126-3.97 1.126Z"/>
</svg>
