<svg xmlns="http://www.w3.org/2000/svg" width="64" height="64" viewBox="0 0 64 64" fill="currentColor">
    <path d="M.711.71c-1.007 1.008-1.007 50.904 0 51.912.533.533 4.622.711 14.815.711 13.689 0 14.104-.06 14.104-1.185 0-1.126-.415-1.185-13.63-1.185H2.37V11.259h59.26v19.555c0 16.89-.119 19.615-.89 19.912-.473.237-.888.889-.888 1.481 0 1.304 2.252 1.6 3.437.415 1.007-1.008 1.007-50.904 0-51.911C62.28-.297 1.719-.297.71.71ZM61.63 5.63v3.259H2.37V2.37h59.26v3.26Z"/>
    <path d="M5.156 4.563c-.83.77-.356 1.956.77 1.956.77 0 1.185-.415 1.185-1.186 0-1.126-1.185-1.6-1.955-.77ZM9.304 4.563c-.83.77-.356 1.956.77 1.956.77 0 1.185-.415 1.185-1.186 0-1.126-1.185-1.6-1.955-.77ZM13.333 4.74c-.474.83.178 1.779 1.245 1.779.474 0 .83-.534.83-1.186 0-1.244-1.423-1.659-2.075-.592ZM21.748 4.563c-.237.178-.415.711-.415 1.185 0 .593 3.437.77 18.43.77 17.185 0 18.37-.059 18.193-1.066-.178-.948-1.6-1.008-18.015-1.185-9.778-.06-17.956.059-18.193.296ZM5.926 16.533c-.356.711-.593 5.452-.593 11.26 0 9.362.06 10.133 1.126 10.725.711.356 5.63.593 11.852.593 9.956 0 10.726-.06 11.319-1.126.355-.652.592-5.274.592-10.726 0-5.452-.237-10.074-.593-10.726-.592-1.067-1.362-1.126-11.851-1.126-10.49 0-11.26.06-11.852 1.126Zm7.111 4.444c0 1.778.178 3.615.355 4.149.415 1.126 2.667 1.244 3.675.237.533-.534.889-.534 1.422 0 1.007 1.007 3.26.889 3.674-.237.178-.534.355-2.37.355-4.149v-3.2h4.741V36.74H8.296V17.777h4.741v3.2Zm6.518-1.066c0 1.718-.177 2.074-.948 1.778-.533-.237-1.363-.06-1.777.296-.712.533-.83.237-.83-1.778 0-2.311.118-2.43 1.778-2.43 1.659 0 1.777.178 1.777 2.134Z"/>
    <path d="M19.2 32.296c-.592 1.482.534 2.193 3.378 1.956 2.133-.119 2.607-.415 2.607-1.363 0-1.008-.474-1.186-2.844-1.363-2.134-.119-2.904.059-3.14.77ZM34.726 24.415c-1.067 1.481-1.245 6.103-.356 8.415.652 1.718 3.141 2.607 4.445 1.54 1.067-.889.474-2.37-.948-2.37-.948 0-1.126-.474-1.126-3.26v-3.318l9.363.178 9.303.178v5.926l-2.37.296c-1.896.237-2.37.533-2.37 1.481 0 .948.474 1.245 2.252 1.363 1.363.119 2.844-.177 3.733-.77 1.244-.83 1.422-1.363 1.422-4.8 0-6.4.474-6.163-11.852-6.163-10.31 0-10.607.06-11.496 1.304Z"/>
    <path d="M42.015 28.207c-.593.711-.89 3.793-1.126 11.022l-.296 10.015-2.015-1.54c-2.43-1.778-4.267-1.897-5.57-.415-1.956 2.133-1.304 4.385 3.022 9.718C41.422 63.881 41.66 64 49.955 64c8.89 0 8.712.178 8.712-10.074 0-9.6-.534-10.608-6.163-12.148l-3.911-1.067v-5.393c0-6.459-.77-8.059-3.793-8.059-1.126 0-2.37.415-2.785.948Zm4.207 8.652.297 6.044 3.851 1.126c2.134.593 4.208 1.423 4.623 1.719.533.474.71 2.607.592 8.119l-.178 7.466-5.037.178c-2.785.118-5.57.06-6.281-.119-1.719-.474-9.956-10.785-9.482-11.97.297-.83.534-.77 1.956.237.948.652 2.311 1.896 3.081 2.726 1.66 1.718 3.319 2.015 3.852.593.178-.534.356-5.808.356-11.734 0-5.985.178-11.022.415-11.259 1.007-1.007 1.659 1.363 1.955 6.874ZM5.748 41.896c-.237.178-.415.711-.415 1.185 0 .593 1.66.77 7.704.77 7.289 0 7.704-.059 7.704-1.185 0-1.125-.415-1.185-7.29-1.185-4.029 0-7.525.178-7.703.415ZM5.748 45.985c-.237.237-.415.77-.415 1.245 0 .533 1.067.77 3.911.77 3.378 0 3.852-.118 3.674-1.067-.118-.77-.888-1.066-3.437-1.185-1.837-.118-3.496 0-3.733.237Z"/>
  </svg>
